<?xml version="1.0" standalone="no"?>
<!DOCTYPE svg PUBLIC "-//W3C//DTD SVG 20010904//EN"
 "http://www.w3.org/TR/2001/REC-SVG-20010904/DTD/svg10.dtd">
<svg version="1.0" xmlns="http://www.w3.org/2000/svg"
 width="128.000000pt" height="100.000000pt" viewBox="0 0 128.000000 100.000000"
 preserveAspectRatio="xMidYMid meet">
<metadata>
Created by potrace 1.16, written by Peter Selinger 2001-2019
</metadata>
<g transform="translate(0.000000,100.000000) scale(0.100000,-0.100000)"
fill="#000000" stroke="none">
<path d="M485 945 c-38 -7 -161 -36 -273 -64 -111 -28 -205 -51 -207 -51 -13
0 -3 -39 15 -55 17 -15 25 -16 70 -5 27 7 50 14 50 17 0 2 -7 11 -15 19 -19
19 -19 34 0 34 16 0 38 -34 28 -44 -9 -9 7 -7 50 5 33 9 36 12 22 25 -19 19
-19 34 -2 34 8 0 19 -11 25 -25 10 -21 7 -31 -17 -67 -23 -33 -30 -57 -33
-105 -2 -54 -1 -62 13 -58 22 7 56 -32 41 -47 -9 -9 -15 -7 -26 8 -11 14 -18
16 -26 8 -9 -9 -3 -19 22 -42 27 -26 30 -33 19 -44 -8 -7 -11 -8 -9 -3 9 17
-16 34 -29 20 -13 -14 -5 -29 20 -38 25 -9 15 -33 -12 -30 -13 2 -21 -3 -21
-12 0 -8 9 -15 19 -15 26 0 34 -15 17 -29 -11 -10 -17 -8 -25 6 -10 17 -10 16
-11 -3 0 -30 85 -84 187 -118 244 -81 553 -64 744 41 8 5 29 -44 29 -67 0 -10
-27 -43 -60 -73 -61 -55 -75 -88 -48 -115 25 -25 89 -2 130 46 80 96 87 178
20 249 -20 22 -46 44 -56 50 -16 9 -19 25 -22 119 -2 60 -3 114 -3 119 0 6 2
31 5 57 14 118 -65 193 -261 248 -62 17 -289 21 -370 5z m103 -30 c6 -14 7
-25 2 -25 -14 0 -41 31 -35 41 10 15 21 10 33 -16z m42 10 c19 -22 7 -41 -13
-21 -18 19 -22 36 -8 36 5 0 14 -7 21 -15z m53 -34 c-2 -3 -11 3 -21 12 -15
16 -15 19 -2 27 11 7 16 4 21 -13 3 -12 4 -24 2 -26z m57 14 c0 -8 -4 -15 -8
-15 -13 0 -32 23 -32 37 0 11 5 11 20 3 11 -6 20 -17 20 -25z m-206 9 c4 -9 4
-19 2 -22 -10 -9 -36 8 -36 23 0 20 26 19 34 -1z m248 -9 c6 -29 5 -30 -16 -9
-20 19 -21 34 -2 34 7 0 16 -11 18 -25z m-295 0 c3 -9 3 -19 -1 -22 -7 -7 -36
16 -36 28 0 15 30 10 37 -6z m348 5 c11 -17 -5 -32 -21 -19 -8 6 -14 15 -14
20 0 12 27 11 35 -1z m39 -6 c20 -19 21 -34 2 -34 -13 0 -26 20 -26 41 0 13 6
11 24 -7z m-440 -10 c10 -27 -3 -30 -26 -6 l-22 22 21 0 c11 0 24 -7 27 -16z
m490 0 c3 -9 6 -23 6 -32 -1 -15 -3 -14 -15 2 -17 22 -20 46 -6 46 5 0 12 -7
15 -16z m-539 -4 c11 -17 -5 -32 -21 -19 -8 6 -14 15 -14 20 0 12 27 11 35 -1z
m-48 -15 c3 -9 3 -19 -1 -22 -7 -7 -36 16 -36 28 0 15 30 10 37 -6z m-50 -15
c9 -14 10 -21 1 -26 -12 -8 -40 24 -32 37 8 14 18 11 31 -11z m701 -8 c2 -15
-2 -22 -12 -22 -11 0 -16 9 -16 26 0 31 23 28 28 -4z m-381 -18 c-9 -9 -27 6
-27 22 0 13 2 13 16 -1 9 -9 14 -18 11 -21z m414 21 c5 4 6 -1 3 -9 -9 -24
-24 -19 -23 7 0 12 3 16 6 9 2 -6 9 -10 14 -7z m-511 -29 c0 -3 -6 -6 -14 -6
-15 0 -28 24 -19 34 6 5 33 -18 33 -28z m44 18 c4 -9 4 -19 1 -22 -6 -6 -35
18 -35 29 0 16 28 10 34 -7z m106 -11 c0 -13 -3 -13 -15 -3 -8 7 -12 16 -9 21
8 13 24 1 24 -18z m43 -6 c-3 -5 -10 -4 -15 1 -6 6 -7 16 -3 22 6 9 9 9 16 -1
4 -7 5 -17 2 -22z m100 3 c3 -11 1 -20 -4 -20 -11 0 -30 36 -22 43 9 10 20 0
26 -23z m-605 -3 c2 -10 -3 -17 -12 -17 -9 0 -16 2 -16 4 0 2 -3 12 -6 21 -5
13 -2 16 12 13 10 -2 20 -11 22 -21z m255 -10 c-2 -4 -11 -3 -19 4 -12 10 -12
14 -2 20 13 9 30 -10 21 -24z m307 12 c0 -5 -7 -9 -15 -9 -8 0 -15 7 -15 15 0
9 6 12 15 9 8 -4 15 -10 15 -15z m-360 7 c0 -2 3 -12 6 -20 4 -12 2 -15 -9
-10 -21 8 -30 34 -12 34 8 0 15 -2 15 -4z m460 -22 c0 -16 -16 -19 -25 -4 -8
13 4 32 16 25 5 -4 9 -13 9 -21z m-750 -26 c0 -13 -17 -9 -30 7 -6 8 -8 20 -4
26 5 9 11 7 21 -6 7 -11 13 -22 13 -27z m248 14 c2 -7 -2 -10 -12 -6 -9 3 -16
11 -16 16 0 13 23 5 28 -10z m550 -18 c-10 -10 -28 6 -28 24 0 15 1 15 17 -1
9 -9 14 -19 11 -23z m-848 6 c9 -17 8 -20 -10 -20 -11 0 -20 2 -20 4 0 2 -3
11 -6 20 -9 24 23 20 36 -4z m890 -6 c0 -8 -4 -14 -9 -14 -11 0 -22 26 -14 34
9 9 23 -3 23 -20z m123 -5 c-27 -11 -33 -10 -33 5 0 19 22 26 38 13 11 -9 11
-12 -5 -18z m-797 -5 c-4 -9 -9 -15 -11 -12 -3 3 -3 13 1 22 4 9 9 15 11 12 3
-3 3 -13 -1 -22z m404 -11 c0 -19 -27 -4 -33 17 -4 16 -2 17 14 7 10 -6 19
-17 19 -24z m-147 5 c3 -11 0 -18 -9 -18 -7 0 -18 8 -23 18 -7 14 -6 18 9 18
10 0 21 -8 23 -18z m51 7 c3 -9 0 -15 -9 -15 -8 0 -15 7 -15 15 0 8 4 15 9 15
5 0 11 -7 15 -15z m46 0 c0 -8 -4 -15 -10 -15 -5 0 -10 7 -10 15 0 8 5 15 10
15 6 0 10 -7 10 -15z m94 -1 c9 -22 -3 -32 -14 -14 -12 19 -12 30 -1 30 5 0
12 -7 15 -16z m47 2 c5 3 9 -2 9 -10 0 -9 -7 -16 -15 -16 -9 0 -15 9 -14 23 0
12 3 16 6 9 2 -6 9 -10 14 -6z m-346 -16 c14 -16 15 -20 4 -20 -16 0 -39 19
-39 32 0 14 16 9 35 -12z m55 4 c0 -17 -22 -14 -28 4 -2 7 3 12 12 12 9 0 16
-7 16 -16z m338 4 c16 -16 15 -28 -2 -28 -7 0 -16 9 -19 20 -6 23 3 26 21 8z
m-438 -24 c0 -20 -18 -17 -29 5 -9 16 -8 18 9 14 11 -3 20 -12 20 -19z m496 1
c3 -17 -12 -20 -21 -5 -7 12 4 34 13 25 3 -3 7 -12 8 -20z m124 4 c0 -6 -4 -7
-10 -4 -5 3 -10 11 -10 16 0 6 5 7 10 4 6 -3 10 -11 10 -16z m-672 -2 c8 -10
7 -13 -7 -14 -10 -1 -18 5 -18 13 0 17 11 18 25 1z m602 -25 c0 -20 -22 -9
-31 16 -7 20 -6 21 11 9 11 -6 20 -18 20 -25z m155 28 c-19 -8 -19 -9 3 -9 12
-1 22 -5 22 -9 0 -5 -13 -7 -30 -4 -42 6 -39 33 4 31 21 0 21 -1 1 -9z m-45
-21 c0 -5 -4 -9 -10 -9 -5 0 -10 7 -10 16 0 8 5 12 10 9 6 -3 10 -10 10 -16z
m-464 -36 c-3 -3 -13 0 -21 7 -13 10 -13 15 -3 21 13 8 35 -17 24 -28z m39 29
c-3 -3 0 -11 6 -19 9 -10 8 -13 -4 -13 -8 0 -17 8 -19 18 -3 11 0 19 8 19 8 0
12 -3 9 -5z m111 -40 c-10 -9 -36 14 -36 32 0 20 1 20 20 -4 10 -14 17 -26 16
-28z m254 17 c0 -5 -7 -9 -15 -9 -9 0 -15 9 -15 21 0 18 2 19 15 9 8 -7 15
-16 15 -21z m-550 -11 c0 -5 -9 -8 -20 -8 -23 0 -25 6 -7 24 12 13 26 4 27
-16z m44 16 c8 -22 8 -24 -8 -24 -18 0 -29 16 -21 30 9 15 22 12 29 -6z m56
-2 c0 -16 -32 -12 -37 5 -3 7 4 11 16 10 12 -1 21 -7 21 -15z m140 2 c0 -9 -5
-14 -12 -12 -18 6 -21 28 -4 28 9 0 16 -7 16 -16z m100 -6 c0 -11 -5 -18 -12
-16 -19 7 -21 35 -3 35 8 0 15 -9 15 -19z m-536 -4 c9 -22 8 -24 -9 -24 -8 0
-15 9 -15 20 0 24 15 27 24 4z m586 -11 c0 -20 -24 -11 -28 10 -2 12 1 15 12
11 9 -3 16 -13 16 -21z m45 -21 c-8 -8 -25 17 -25 38 0 9 6 6 16 -8 9 -13 13
-26 9 -30z m149 33 c3 -8 1 -15 -4 -15 -6 0 -10 7 -10 15 0 8 2 15 4 15 2 0 6
-7 10 -15z m76 5 c0 -5 -4 -10 -9 -10 -6 0 -13 5 -16 10 -3 6 1 10 9 10 9 0
16 -4 16 -10z m-716 -15 c3 -9 0 -15 -9 -15 -16 0 -27 14 -18 24 10 10 21 7
27 -9z m546 -31 c0 -8 -4 -14 -10 -14 -5 0 -10 2 -10 4 0 2 -3 12 -6 20 -5 12
-2 15 10 10 9 -3 16 -12 16 -20z m-325 -12 c-8 -8 -25 10 -19 20 4 6 9 5 15
-3 4 -7 6 -15 4 -17z m485 18 c0 -5 -4 -10 -9 -10 -6 0 -13 5 -16 10 -3 6 1
10 9 10 9 0 16 -4 16 -10z m-535 -10 c3 -5 -1 -10 -9 -10 -8 0 -18 5 -21 10
-3 6 1 10 9 10 8 0 18 -4 21 -10z m105 -2 c0 -4 -7 -8 -15 -8 -8 0 -15 4 -15
8 0 5 7 9 15 9 8 0 15 -4 15 -9z m44 -3 c3 -9 0 -15 -9 -15 -8 0 -15 7 -15 15
0 8 4 15 9 15 5 0 11 -7 15 -15z m-459 -5 c-3 -5 -10 -10 -16 -10 -5 0 -9 5
-9 10 0 6 7 10 16 10 8 0 12 -4 9 -10z m41 -1 c3 -6 1 -15 -5 -20 -6 -5 -9 -6
-6 -3 3 4 0 13 -6 21 -8 9 -8 13 -1 13 6 0 14 -5 18 -11z m113 -18 c-15 -5
-22 6 -14 19 6 9 10 9 16 -1 5 -8 4 -15 -2 -18z m51 19 c0 -5 -5 -10 -11 -10
-5 0 -7 5 -4 10 3 6 8 10 11 10 2 0 4 -4 4 -10z m60 0 c0 -5 -6 -10 -14 -10
-8 0 -18 5 -21 10 -3 6 3 10 14 10 12 0 21 -4 21 -10z m244 -6 c4 -10 1 -14
-6 -12 -15 5 -23 28 -10 28 5 0 13 -7 16 -16z m46 -6 c0 -10 -2 -18 -5 -18 -2
0 -9 8 -14 18 -8 14 -6 19 5 19 7 0 14 -9 14 -19z m174 6 c9 -24 7 -28 -9 -14
-17 14 -20 30 -6 30 5 0 12 -7 15 -16z m86 -9 c0 -18 -4 -23 -15 -19 -17 7
-17 7 -9 28 9 24 24 19 24 -9z m-300 -15 c122 -25 123 -25 115 3 -7 21 -6 21
10 5 17 -16 17 -18 1 -34 -18 -17 -165 -35 -231 -27 -16 1 -49 5 -73 7 -87 9
-192 29 -192 37 0 4 26 10 58 14 31 3 64 8 72 9 45 10 157 3 240 -14z m85 9
c11 -17 -1 -21 -15 -4 -8 9 -8 15 -2 15 6 0 14 -5 17 -11z m-516 -13 c9 -10 8
-16 -4 -26 -21 -17 -51 6 -34 26 6 8 15 14 19 14 4 0 13 -6 19 -14z m619 -4
c3 -9 -2 -13 -14 -10 -9 1 -19 9 -22 16 -3 9 2 13 14 10 9 -1 19 -9 22 -16z
m72 -17 c0 -16 -6 -25 -15 -25 -15 0 -21 31 -8 43 13 14 23 6 23 -18z m100 18
c0 -5 -5 -15 -10 -23 -8 -12 -10 -11 -10 8 0 12 5 22 10 22 6 0 10 -3 10 -7z
m-746 -28 c-4 -8 -15 -15 -26 -15 -17 0 -18 3 -8 15 7 8 19 15 26 15 8 0 11
-6 8 -15z m56 -2 c-1 -20 -27 -41 -40 -33 -11 7 -11 11 -1 24 14 16 41 22 41
9z m540 -7 c0 -18 -26 -40 -34 -27 -9 14 4 41 20 41 8 0 14 -6 14 -14z m-500
-11 c0 -16 -27 -32 -37 -21 -7 7 16 36 28 36 5 0 9 -7 9 -15z m450 6 c0 -5 -9
-19 -20 -32 -21 -26 -27 -11 -10 22 11 19 30 26 30 10z m141 -34 c-8 -8 -11
-5 -11 9 0 27 14 41 18 19 2 -9 -1 -22 -7 -28z m-541 14 c-13 -26 -27 -34 -35
-21 -8 14 13 40 32 40 10 0 11 -4 3 -19z m348 -3 c-2 -13 -11 -24 -20 -26 -21
-4 -24 18 -6 36 19 19 30 14 26 -10z m-558 3 c0 -6 -5 -13 -10 -16 -15 -9 -43
3 -35 15 8 13 45 13 45 1z m260 -11 c-9 -17 -40 -29 -40 -16 0 18 15 36 31 36
17 0 18 -3 9 -20z m56 4 c-3 -9 -6 -20 -6 -25 0 -5 -7 -9 -15 -9 -18 0 -20 21
-3 38 17 17 31 15 24 -4z m94 4 c0 -7 -5 -20 -10 -28 -7 -12 -12 -12 -21 -3
-9 9 -9 16 1 28 15 18 30 20 30 3z m50 -1 c0 -14 -20 -37 -32 -37 -12 0 -10
24 4 38 16 16 28 15 28 -1z m44 -9 c-9 -30 -12 -34 -24 -22 -14 14 -2 44 17
44 10 0 12 -6 7 -22z m-148 -4 c-3 -9 -6 -18 -6 -20 0 -2 -7 -4 -15 -4 -18 0
-19 12 -3 28 17 17 31 15 24 -4z m363 9 c0 -5 -4 -17 -9 -28 -8 -18 -9 -17 -9
8 -1 15 4 27 9 27 6 0 10 -3 9 -7z m-679 -11 c0 -15 -22 -30 -36 -25 -11 4
-12 9 -3 19 12 15 39 19 39 6z m635 -21 c-3 -12 -11 -21 -16 -21 -14 0 -11 38
4 43 17 6 20 2 12 -22z m-585 15 c0 -18 -15 -36 -31 -36 -17 0 -18 3 -9 20 9
17 40 29 40 16z m540 -24 c0 -9 -9 -23 -21 -30 -19 -12 -20 -12 -14 10 6 19
22 37 33 38 1 0 2 -8 2 -18z m170 -9 c0 -21 -3 -24 -9 -14 -5 8 -7 20 -4 28 8
21 13 15 13 -14z m-670 -3 c-11 -20 -22 -25 -33 -14 -11 11 5 34 24 34 17 0
18 -3 9 -20z m50 -10 c-6 -11 -17 -17 -25 -14 -19 8 -19 9 1 28 20 21 37 11
24 -14z m-186 11 c3 -5 -1 -15 -10 -22 -13 -10 -17 -10 -24 1 -6 9 -4 17 3 22
16 10 25 10 31 -1z m246 0 c0 -24 -13 -38 -30 -34 -16 4 -18 9 -9 24 10 19 39
27 39 10z m285 -20 c-6 -21 -35 -30 -35 -12 0 12 31 43 37 37 3 -2 2 -14 -2
-25z m55 9 c0 -11 -7 -20 -15 -20 -15 0 -21 21 -8 33 12 13 23 7 23 -13z m176
-17 c-11 -11 -19 6 -11 24 8 17 8 17 12 0 3 -10 2 -21 -1 -24z m-468 10 c-2
-10 -14 -19 -26 -21 -21 -3 -22 -2 -10 17 16 25 41 28 36 4z m52 11 c0 -13
-21 -44 -30 -44 -14 0 -12 24 2 38 13 13 28 16 28 6z m40 -3 c0 -21 -13 -41
-26 -41 -17 0 -17 5 -4 31 11 20 30 26 30 10z m52 -16 c-3 -16 -11 -25 -23
-25 -22 0 -23 4 -9 31 16 28 38 24 32 -6z m48 6 c0 -17 -27 -37 -37 -27 -7 7
17 46 27 46 6 0 10 -9 10 -19z m231 -28 c-10 -17 -10 -16 -11 3 0 23 13 41 18
25 2 -6 -1 -18 -7 -28z m-671 17 c0 -12 -28 -25 -36 -17 -9 9 6 27 22 27 8 0
14 -5 14 -10z m640 3 c0 -5 -4 -15 -10 -23 -11 -18 -25 -7 -17 15 6 15 27 21
27 8z m-590 -10 c-1 -19 -16 -31 -29 -24 -7 5 -10 14 -7 20 8 12 36 15 36 4z
m43 -10 c9 -9 -12 -33 -30 -33 -11 0 -11 4 -3 20 11 21 22 25 33 13z m497 -12
c0 -10 -7 -22 -16 -25 -22 -8 -23 -6 -13 22 10 27 29 29 29 3z m-650 0 c0 -18
-18 -21 -30 -6 -10 13 -9 15 9 15 11 0 21 -4 21 -9z m204 1 c2 -4 1 -14 -4
-22 -7 -11 -12 -12 -21 -3 -6 6 -8 16 -5 22 8 13 23 14 30 3z m56 -9 c0 -16
-16 -30 -32 -30 -13 0 -15 4 -7 19 9 17 39 26 39 11z m285 -22 c-6 -21 -35
-30 -35 -12 0 12 31 43 37 37 3 -2 2 -14 -2 -25z m55 9 c0 -11 -7 -20 -15 -20
-15 0 -21 21 -8 33 12 13 23 7 23 -13z m-560 1 c0 -14 -18 -23 -30 -16 -6 4
-8 11 -5 16 8 12 35 12 35 0z m270 5 c0 -16 -14 -36 -26 -36 -14 0 -19 22 -7
33 7 8 33 10 33 3z m43 -16 c-3 -11 -12 -20 -19 -20 -16 0 -16 2 -8 24 9 24
33 20 27 -4z m47 11 c0 -21 -13 -41 -26 -41 -17 0 -17 5 -4 31 11 20 30 26 30
10z m51 -13 c-10 -28 -31 -35 -31 -10 0 22 8 32 26 32 10 0 11 -6 5 -22z m49
3 c0 -10 -9 -21 -20 -24 -23 -6 -24 -3 -10 24 14 24 30 25 30 0z m280 5 c0 -8
-4 -18 -10 -21 -5 -3 -10 3 -10 14 0 12 5 21 10 21 6 0 10 -6 10 -14z m-52
-37 c-18 -12 -23 8 -6 28 12 15 13 15 16 -2 2 -10 -2 -21 -10 -26z m-739 -5
c-6 -7 -17 -10 -25 -7 -17 6 -18 15 -2 31 17 17 43 -5 27 -24z m101 21 c-13
-16 -40 -20 -40 -7 0 14 12 22 33 22 16 0 17 -3 7 -15z m600 1 c0 -14 -27 -42
-34 -35 -2 2 0 14 5 27 9 24 29 30 29 8z m-550 -3 c-1 -19 -16 -31 -29 -24 -7
5 -10 14 -7 20 8 12 36 15 36 4z m50 -17 c0 -14 -29 -31 -38 -22 -2 3 -2 12 1
21 8 19 37 20 37 1z m450 2 c-1 -19 -29 -53 -37 -45 -8 9 14 57 27 57 5 0 10
-6 10 -12z m205 3 c3 -5 1 -12 -5 -16 -5 -3 -10 1 -10 9 0 18 6 21 15 7z
m-812 -8 c11 -10 -13 -32 -29 -26 -11 4 -12 9 -3 19 13 15 22 18 32 7z m207
-13 c-12 -22 -40 -27 -40 -7 0 19 10 27 32 27 16 0 17 -3 8 -20z m350 0 c0
-20 -25 -38 -36 -27 -8 7 15 47 26 47 6 0 10 -9 10 -20z m-300 6 c0 -16 -14
-36 -26 -36 -16 0 -16 2 -8 24 5 14 34 24 34 12z m48 -13 c-2 -10 -11 -19 -21
-21 -16 -3 -17 -1 -7 17 13 25 33 28 28 4z m48 1 c-3 -9 -6 -20 -6 -25 0 -5
-7 -9 -15 -9 -18 0 -20 21 -3 38 17 17 31 15 24 -4z m99 -13 c-7 -24 -35 -29
-35 -6 0 13 31 38 38 30 2 -2 1 -13 -3 -24z m51 13 c-3 -9 -6 -20 -6 -25 0 -5
-7 -9 -15 -9 -8 0 -15 4 -15 9 0 21 13 41 27 41 10 0 13 -6 9 -16z m274 2 c0
-17 -14 -29 -23 -20 -8 8 3 34 14 34 5 0 9 -6 9 -14z m-730 -10 c0 -20 -19
-31 -32 -18 -6 6 -7 15 -4 21 10 16 36 13 36 -3z m360 6 c0 -13 -23 -32 -37
-32 -11 0 -11 5 -3 20 10 19 40 28 40 12z m330 -25 c0 -5 -4 -6 -9 -3 -5 4
-12 0 -14 -6 -3 -7 -6 -4 -6 8 -1 11 2 24 6 27 7 7 23 -11 23 -26z m-640 9 c0
-20 -14 -33 -31 -29 -15 4 -17 8 -8 19 10 13 39 20 39 10z m590 -10 c0 -8 -4
-18 -10 -21 -5 -3 -10 3 -10 14 0 12 5 21 10 21 6 0 10 -6 10 -14z m182 -2
c-24 -17 -39 -14 -27 5 3 6 16 11 28 11 l21 0 -22 -16z m-722 -3 c0 -15 -28
-33 -40 -26 -8 5 -8 11 1 21 13 15 39 19 39 5z m493 -8 c-9 -24 -33 -48 -33
-33 0 17 20 50 30 50 5 0 6 -8 3 -17z m-433 -1 c0 -5 -9 -17 -19 -26 -21 -19
-37 -7 -27 19 6 16 46 21 46 7z m39 -9 c-2 -27 -15 -42 -28 -33 -12 7 -12 11
-2 24 14 17 32 21 30 9z m351 -1 c0 -15 -28 -47 -35 -40 -11 11 5 48 21 48 8
0 14 -4 14 -8z m-300 -6 c0 -16 -14 -36 -26 -36 -14 0 -19 22 -7 33 7 8 33 10
33 3z m43 -17 c-5 -19 -29 -37 -37 -28 -2 2 0 14 5 27 11 29 39 30 32 1z m157
13 c0 -16 -27 -45 -39 -41 -8 3 -7 11 4 27 16 22 35 30 35 14z m50 1 c-1 -11
-26 -43 -34 -43 -8 0 -8 35 1 43 9 9 33 9 33 0z m330 -3 l-25 -8 27 -1 c15 -1
30 -6 34 -13 5 -8 2 -9 -10 -5 -10 4 -26 7 -37 7 -10 0 -19 7 -19 15 0 10 9
15 28 14 l27 -1 -25 -8z m-492 -20 c-11 -17 -38 -28 -38 -16 0 18 15 36 31 36
17 0 18 -3 7 -20z m55 0 c-3 -11 -14 -20 -25 -20 -16 0 -17 3 -8 20 6 11 17
20 24 20 9 0 12 -7 9 -20z m457 -40 c0 -20 -1 -20 -25 -4 -14 9 -25 18 -25 20
0 2 11 4 25 4 18 0 25 -5 25 -20z m-32 -22 c7 -7 12 -21 11 -32 -1 -18 -2 -17
-9 4 -4 14 -8 19 -9 11 -1 -11 -4 -11 -16 -1 -8 7 -15 16 -15 21 0 13 24 11
38 -3z m-27 -42 c8 -17 8 -29 0 -42 -10 -18 -10 -18 -12 1 -1 17 -2 16 -9 -5
l-8 -25 -1 27 c-1 15 -5 30 -11 33 -18 11 -11 35 10 35 12 0 25 -10 31 -24z"/>
</g>
</svg>
