<?xml version="1.0" standalone="no"?>
<!DOCTYPE svg PUBLIC "-//W3C//DTD SVG 20010904//EN"
 "http://www.w3.org/TR/2001/REC-SVG-20010904/DTD/svg10.dtd">
<svg version="1.0" xmlns="http://www.w3.org/2000/svg"
 width="128.000000pt" height="241.000000pt" viewBox="0 0 128.000000 241.000000"
 preserveAspectRatio="xMidYMid meet">
<metadata>
Created by potrace 1.16, written by Peter Selinger 2001-2019
</metadata>
<g transform="translate(0.000000,241.000000) scale(0.100000,-0.100000)"
fill="#000000" stroke="none">
<path d="M626 2398 c-22 -5 -47 -15 -56 -23 -9 -8 -19 -12 -22 -9 -4 3 -20 -2
-37 -10 -16 -9 -43 -16 -59 -16 -16 0 -41 -9 -55 -20 -14 -11 -28 -20 -31 -20
-4 0 -2 9 4 20 10 18 8 20 -22 20 -18 0 -40 -5 -48 -11 -12 -8 -10 -9 8 -4 26
8 26 7 7 -39 -16 -38 -21 -41 -45 -26 -12 7 -12 12 -2 22 19 19 15 23 -25 22
-35 -1 -41 -6 -81 -65 -24 -35 -52 -68 -62 -73 -11 -5 -22 -18 -26 -30 -3 -12
-14 -30 -24 -41 -10 -11 -24 -42 -31 -69 -11 -43 -10 -50 4 -58 10 -5 17 -18
17 -30 0 -21 0 -21 -20 -3 -21 19 -21 19 -16 -21 3 -21 8 -70 11 -109 8 -91
20 -137 57 -210 37 -73 68 -112 119 -147 22 -14 55 -40 74 -57 20 -17 45 -31
56 -31 31 0 42 -44 30 -124 -5 -38 -8 -73 -5 -78 3 -5 -20 -39 -51 -76 -101
-122 -168 -277 -200 -465 -11 -60 -27 -113 -48 -152 -27 -52 -31 -70 -31 -135
0 -80 13 -118 56 -156 33 -30 87 -56 104 -50 9 3 23 -9 39 -34 32 -51 57 -63
116 -58 39 4 52 1 65 -13 21 -23 52 -24 82 -3 12 8 28 12 34 8 19 -12 176 -15
183 -4 3 6 14 10 24 10 10 0 26 9 36 20 10 11 26 20 35 20 9 0 25 7 36 15 10
8 29 15 42 15 29 0 82 51 82 79 0 26 13 27 49 0 15 -11 47 -23 70 -26 35 -5
46 -2 67 18 14 13 33 38 41 54 8 17 23 39 33 50 27 29 70 151 70 196 0 21 -9
61 -20 89 -12 31 -20 75 -20 113 -1 81 -31 151 -101 230 -83 95 -137 145 -220
203 -42 30 -82 60 -88 68 -7 8 -15 66 -18 139 l-6 125 29 35 c16 19 58 59 94
87 64 51 118 116 147 175 8 17 27 55 43 85 16 30 30 63 30 72 0 10 9 32 20 50
21 35 26 83 10 93 -6 4 -10 -5 -10 -21 0 -28 -35 -94 -50 -94 -15 0 -22 38
-11 59 6 11 25 35 41 53 39 42 57 99 42 130 -9 20 -11 17 -12 -27 -1 -27 -4
-44 -7 -37 -8 21 -23 13 -23 -12 0 -15 -7 -26 -20 -29 -13 -3 -20 -14 -20 -29
0 -30 -15 -52 -29 -44 -6 4 -11 0 -11 -11 0 -15 -3 -14 -16 6 -16 22 -15 24
33 69 59 56 93 123 73 147 -17 21 -33 19 -22 -2 11 -21 1 -65 -13 -61 -5 2 -9
26 -8 53 l2 50 -12 -40 c-13 -45 -59 -100 -88 -108 -17 -5 -19 -1 -13 28 3 18
1 42 -6 55 -9 16 -9 25 1 36 11 14 14 13 21 -1 5 -8 6 -25 2 -37 -5 -17 -3
-20 11 -15 9 4 18 7 21 7 9 0 34 61 34 84 0 52 -80 84 -128 50 -31 -21 -62
-86 -62 -129 0 -39 -19 -83 -44 -104 -14 -12 -16 -9 -16 20 0 19 5 52 10 74
12 51 6 56 -15 11 -12 -24 -16 -50 -12 -76 3 -22 1 -43 -4 -46 -5 -3 -9 4 -9
15 0 35 -20 23 -21 -11 -1 -21 -3 -26 -6 -14 -4 16 -8 11 -19 -20 -7 -21 -12
-46 -10 -54 3 -8 8 -26 12 -40 l7 -25 -20 24 -20 24 -22 -32 c-17 -23 -28 -30
-42 -26 -14 5 -19 2 -19 -10 0 -23 -33 -115 -41 -115 -18 0 -31 33 -26 65 3
19 2 35 -4 35 -11 0 -12 127 0 134 10 7 23 -77 14 -99 -7 -19 16 -67 29 -59 4
3 8 17 8 32 0 15 9 42 20 60 16 26 18 39 11 65 l-9 32 -1 -31 c-1 -34 -40
-131 -41 -101 0 10 5 28 11 39 8 14 8 23 0 31 -20 20 -7 127 16 127 16 0 45
-91 41 -125 -2 -19 0 -35 4 -35 4 0 8 9 8 21 0 31 30 89 46 89 7 0 25 25 40
56 15 31 36 66 47 77 15 15 18 28 14 58 -3 26 0 42 9 50 8 6 14 23 14 36 0 16
7 27 20 30 11 3 18 9 15 13 -3 5 -14 6 -25 3 -14 -4 -20 0 -20 12 0 14 6 15
33 10 47 -10 54 -21 30 -47 -25 -28 -34 -66 -23 -93 7 -15 9 -11 9 21 1 26 9
51 22 68 11 15 18 33 15 41 -9 25 -56 38 -87 24 -21 -8 -37 -8 -64 1 -29 10
-42 10 -60 0 -15 -8 -29 -9 -41 -3 -11 6 -35 6 -58 1z m50 -22 c1 0 11 -20 23
-43 20 -41 20 -44 4 -78 -16 -33 -18 -35 -30 -19 -16 22 -17 68 -2 96 6 11 8
22 6 25 -3 3 -13 -9 -22 -26 -19 -37 -32 -39 -41 -7 -9 36 12 69 39 60 12 -3
23 -7 23 -8z m131 -5 c25 -1 54 -42 34 -49 -6 -2 -11 -11 -12 -20 0 -11 -2
-12 -6 -4 -2 6 -9 12 -14 12 -4 0 -6 -6 -3 -13 3 -8 -2 -19 -10 -26 -19 -16
-28 -1 -28 45 0 19 -4 31 -9 28 -5 -3 -9 -14 -9 -25 0 -29 -16 -23 -30 12 -15
36 -3 50 39 44 14 -2 36 -4 48 -4z m-220 -38 c-3 -10 -5 -4 -5 12 0 17 2 24 5
18 2 -7 2 -21 0 -30z m-61 -17 c-19 -42 -36 -52 -36 -22 0 15 38 66 49 66 4 0
-2 -20 -13 -44z m47 -23 c-8 -3 -8 -12 0 -33 15 -38 0 -51 -24 -21 -21 26 -24
53 -8 83 11 20 11 20 27 -3 10 -15 12 -24 5 -26z m-115 -3 c-3 -47 -17 -53
-38 -17 -12 21 -12 28 -1 41 25 30 42 19 39 -24z m152 -6 c0 -10 6 -13 18 -10
26 9 50 -74 32 -112 -11 -26 -12 -26 -26 -7 -8 10 -14 39 -15 64 0 41 -1 43
-10 21 -13 -30 -4 -77 17 -101 15 -17 15 -20 -5 -45 -12 -15 -21 -34 -21 -42
0 -11 -3 -13 -10 -6 -15 15 -15 56 -1 148 7 44 10 87 8 98 -3 10 -1 16 4 12 5
-3 9 -12 9 -20z m-250 -25 c0 -4 -4 -10 -9 -13 -14 -9 -32 20 -25 39 7 17 8
17 21 -1 7 -10 13 -21 13 -25z m-120 21 c0 -6 11 -20 25 -32 18 -15 24 -30 23
-55 -1 -30 -4 -34 -27 -31 -23 3 -27 9 -31 48 -5 39 -7 42 -14 21 -7 -21 -10
-22 -24 -8 -14 14 -13 18 2 41 16 26 46 36 46 16z m526 -32 c1 -13 7 -38 13
-55 10 -34 4 -42 -17 -21 -8 8 -10 2 -5 -25 7 -46 1 -47 -27 -1 -17 27 -21 45
-17 75 9 69 45 87 53 27z m244 21 c0 -27 -37 -79 -55 -79 -8 0 -18 11 -21 26
-5 18 0 32 17 50 28 30 59 32 59 3z m44 -4 c17 -26 22 -65 8 -65 -10 0 -28 35
-35 68 -7 29 7 28 27 -3z m-544 -60 c0 -21 9 -40 25 -55 24 -23 33 -50 17 -50
-4 0 -14 6 -20 12 -10 10 -12 6 -10 -22 2 -29 0 -34 -14 -32 -15 2 -16 -1 -8
-23 6 -15 8 -31 5 -36 -3 -4 3 -25 14 -46 l21 -38 -6 55 c-5 45 -3 58 10 69
25 21 45 -2 28 -29 -6 -11 -12 -34 -12 -52 0 -37 -42 -149 -56 -149 -17 0 -27
71 -14 95 14 27 10 68 -8 74 -9 3 -10 -2 -3 -20 10 -27 -1 -59 -13 -39 -13 21
-27 12 -15 -10 11 -22 5 -84 -10 -94 -5 -2 -12 16 -16 40 -5 39 -2 55 24 109
17 34 31 72 31 83 0 11 7 42 15 69 14 46 14 51 -5 76 -20 28 -26 59 -13 72 12
12 33 -26 33 -59z m-102 43 c17 -17 15 -67 -4 -119 -8 -24 -13 -57 -10 -72 3
-16 0 -37 -8 -50 -8 -12 -18 -40 -22 -62 -11 -67 -21 -74 -30 -20 -5 34 -3 50
5 53 6 2 11 21 11 41 0 21 4 51 10 67 7 23 16 98 20 167 0 11 14 9 28 -5z
m412 -27 c0 -39 -14 -47 -29 -15 -12 28 -7 44 15 44 9 0 14 -10 14 -29z m-474
-26 c3 -18 4 -43 2 -56 -3 -24 -3 -24 -25 7 -17 24 -21 40 -17 62 8 39 31 32
40 -13z m234 -27 c0 -22 -9 -23 -38 -2 -15 10 -22 25 -22 46 l0 32 30 -29 c17
-16 30 -37 30 -47z m-400 44 c0 -5 13 -21 29 -36 74 -70 73 -69 82 -55 7 12
11 12 23 -1 15 -15 19 -36 17 -79 l-1 -23 -19 23 c-24 30 -38 19 -18 -13 8
-12 18 -43 21 -68 l7 -45 -25 30 c-18 22 -25 41 -24 69 1 31 -4 43 -25 60 -17
14 -27 32 -27 47 0 14 -9 34 -20 44 -23 21 -39 13 -21 -9 14 -16 23 -86 12
-86 -4 0 -15 6 -26 13 -14 11 -17 22 -12 55 3 23 1 42 -4 42 -5 0 -4 9 3 20
13 20 28 27 28 12z m306 -76 c-4 -20 -10 -36 -15 -36 -11 0 -31 47 -31 74 0
33 11 39 33 17 15 -15 18 -27 13 -55z m444 43 c0 -11 -4 -17 -10 -14 -5 3 -10
13 -10 21 0 8 5 14 10 14 6 0 10 -9 10 -21z m-203 -68 c16 -38 10 -54 -12 -25
-13 17 -14 16 -8 -17 7 -50 -11 -56 -31 -10 -15 32 -16 44 -6 82 11 41 13 43
27 24 8 -11 22 -35 30 -54z m257 12 c-7 -37 -54 -88 -54 -60 0 9 -5 17 -12 17
-6 0 -2 10 10 23 12 13 22 28 22 33 0 16 23 35 32 26 5 -5 5 -22 2 -39z m-856
-14 l4 -34 -26 24 c-20 19 -23 27 -14 38 17 21 33 10 36 -28z m800 24 c-2 -9
-8 -18 -15 -20 -7 -3 -9 3 -6 16 6 25 26 28 21 4z m-480 -28 c13 -29 16 -115
4 -115 -13 0 -42 57 -42 83 0 30 9 57 19 57 4 0 13 -11 19 -25z m654 -20 c-14
-31 -32 -33 -32 -2 0 29 20 51 34 37 6 -6 5 -18 -2 -35z m-958 -84 c3 -21 17
-47 31 -61 14 -13 25 -34 25 -48 0 -36 -23 -21 -33 22 -6 25 -18 41 -38 51
-34 18 -49 43 -49 82 0 22 -2 25 -10 13 -11 -17 -13 -1 -4 25 11 27 70 -38 78
-84z m914 67 c-2 -13 -9 -22 -16 -20 -6 1 -12 -5 -12 -14 0 -17 -21 -15 -27 4
-5 12 32 52 48 52 6 0 9 -10 7 -22z m-175 -56 c-17 -13 -17 -13 2 -10 11 2 28
12 37 23 15 18 17 18 18 3 0 -9 -5 -28 -12 -42 -9 -20 -14 -23 -25 -15 -10 9
-13 7 -13 -8 0 -10 -6 -25 -12 -32 -11 -11 -9 -12 10 -6 20 6 22 3 22 -26 0
-32 0 -32 -21 -13 -20 18 -20 18 -14 -8 7 -29 -10 -47 -28 -29 -8 8 -7 18 4
37 7 15 12 37 11 49 -2 13 1 26 7 29 6 4 4 17 -7 36 -16 28 -16 30 8 55 l25
27 3 -28 c3 -18 -3 -33 -15 -42z m-631 34 c11 -25 6 -56 -10 -56 -13 0 -32 48
-26 65 9 22 23 18 36 -9z m738 10 c0 -8 -4 -18 -10 -21 -5 -3 -10 -11 -10 -17
0 -6 6 -5 16 3 13 11 14 9 9 -17 -14 -59 -17 -65 -31 -60 -10 4 -14 -2 -14
-19 0 -30 -16 -33 -23 -4 -7 27 1 47 24 60 14 7 18 16 13 34 -7 29 1 55 16 55
5 0 10 -6 10 -14z m-811 -10 c7 -8 11 -34 9 -58 -3 -38 -4 -40 -14 -23 -15 26
-25 95 -15 95 5 0 14 -6 20 -14z m-133 -42 c-4 -14 -11 -22 -16 -19 -5 3 -4
19 2 37 13 36 24 21 14 -18z m794 -13 c0 -16 -7 -34 -15 -41 -12 -10 -16 -8
-25 14 -7 20 -6 31 7 46 21 24 33 17 33 -19z m-415 -1 c13 -40 -17 -82 -31
-45 -8 19 3 65 16 65 5 0 12 -9 15 -20z m-345 1 c0 -5 16 -26 35 -47 19 -20
35 -43 35 -50 0 -21 -43 -1 -55 24 -12 26 -25 29 -26 5 0 -13 -3 -12 -10 5
-10 26 -2 72 12 72 5 0 9 -4 9 -9z m963 -49 c-3 -12 -9 -20 -13 -17 -5 3 -11
-3 -15 -14 -3 -11 -15 -31 -26 -46 -17 -20 -24 -23 -35 -14 -11 9 -14 8 -14
-5 0 -9 -7 -16 -15 -16 -22 0 -20 4 35 61 28 29 50 57 50 64 0 6 5 16 12 23
16 16 29 -6 21 -36z m-806 16 c17 -35 23 -58 16 -58 -16 0 -43 35 -43 57 0 29
13 30 27 1z m540 -20 c-3 -7 -5 -2 -5 12 0 14 2 19 5 13 2 -7 2 -19 0 -25z
m-475 -31 c22 -35 25 -50 21 -89 -5 -40 -3 -48 11 -48 9 0 16 -7 16 -15 0 -8
-9 -15 -20 -15 -29 0 -60 68 -58 127 1 26 -1 56 -6 66 -16 34 9 16 36 -26z
m108 -36 c-1 -25 -1 -25 -15 -7 -8 11 -15 31 -15 45 1 25 1 25 15 7 8 -11 15
-31 15 -45z m430 49 c0 -6 -17 -29 -39 -53 -44 -49 -75 -103 -62 -111 5 -3 14
8 20 26 13 37 50 80 62 72 20 -12 7 -43 -26 -65 -19 -13 -35 -28 -35 -32 0 -5
5 -5 11 -1 7 4 9 -2 7 -17 -2 -16 -9 -24 -21 -23 -9 1 -17 -2 -17 -6 0 -5 -3
-16 -7 -26 -4 -12 -3 -15 5 -10 7 4 12 1 12 -8 0 -21 -6 -20 -30 4 -11 11 -24
20 -28 20 -5 0 -19 -22 -32 -50 -13 -27 -25 -48 -28 -45 -10 9 44 114 61 118
11 4 17 15 17 34 0 15 8 40 18 54 36 55 57 84 69 97 7 7 13 18 13 23 0 5 7 9
15 9 8 0 15 -5 15 -10z m255 -1 c4 -5 1 -24 -6 -41 -12 -30 -13 -30 -21 -8
-14 38 9 80 27 49z m-363 -71 c-16 -16 -25 29 -10 54 13 23 13 22 16 -11 2
-18 -1 -38 -6 -43z m-683 45 c0 -5 -4 -17 -9 -28 -8 -18 -9 -17 -9 8 -1 15 4
27 9 27 6 0 10 -3 9 -7z m18 -25 c-3 -7 -5 -2 -5 12 0 14 2 19 5 13 2 -7 2
-19 0 -25z m184 -5 c22 -58 -3 -75 -27 -18 -7 19 -14 39 -14 44 0 19 31 -1 41
-26z m-117 -16 c32 -42 33 -50 4 -42 -28 8 -48 32 -48 57 0 27 16 22 44 -15z
m916 13 c0 -10 -9 -24 -20 -30 -17 -9 -20 -8 -20 8 0 18 18 42 32 42 4 0 8 -9
8 -20z m-620 -83 c0 -19 -1 -20 -20 -2 -11 10 -20 24 -20 32 0 7 -5 13 -10 13
-12 0 3 -34 27 -61 14 -16 8 -49 -9 -49 -24 0 -52 133 -32 153 10 10 64 -63
64 -86z m695 74 c-3 -6 -11 -11 -17 -11 -6 0 -6 6 2 15 14 17 26 13 15 -4z
m-928 -3 c12 -19 31 -128 22 -128 -16 0 -49 69 -49 104 0 36 12 47 27 24z
m373 -21 c-1 -21 -1 -21 -15 -3 -8 10 -12 23 -9 28 9 14 24 -2 24 -25z m128
-2 c3 -26 2 -27 -13 -15 -15 13 -16 11 -10 -22 8 -44 0 -64 -21 -47 -19 15
-18 41 4 83 20 41 36 41 40 1z m-613 -16 c17 -31 13 -51 -6 -32 -10 10 -23 63
-14 63 2 0 12 -14 20 -31z m399 -1 c18 -34 21 -68 7 -68 -10 0 -31 54 -31 81
0 27 6 24 24 -13z m416 0 c-1 -31 -1 -32 -15 -14 -14 19 -15 18 -15 -11 0 -40
-17 -52 -26 -19 -5 20 0 31 23 50 15 14 29 26 31 26 1 0 2 -15 2 -32z m80 -23
c-17 -21 -30 -19 -30 5 0 24 33 46 38 24 2 -8 -2 -21 -8 -29z m110 29 c0 -8
-4 -12 -10 -9 -5 3 -10 10 -10 16 0 5 5 9 10 9 6 0 10 -7 10 -16z m-1031 -41
c1 -7 -3 -13 -9 -13 -5 0 -10 15 -9 33 0 27 2 29 9 12 5 -11 9 -26 9 -32z
m485 21 c10 -26 7 -104 -4 -104 -17 0 -31 50 -24 86 7 36 18 44 28 18z m524
-12 c2 -13 -4 -25 -17 -31 -17 -9 -22 -8 -32 11 -10 18 -8 24 7 35 23 17 38
12 42 -15z m-810 -16 c19 -39 28 -101 13 -92 -6 4 -9 12 -5 17 3 5 -2 21 -10
35 -9 13 -21 36 -26 50 -14 35 10 27 28 -10z m-99 -16 c10 -22 18 -40 16 -40
-17 0 -38 17 -50 41 -19 35 -19 39 0 39 8 0 23 -18 34 -40z m763 3 c-6 -10
-22 -29 -36 -42 -39 -36 -34 -3 5 37 33 34 47 36 31 5z m-101 -56 c-8 -8 -11
-1 -11 24 0 46 14 60 18 19 2 -18 -1 -37 -7 -43z m165 15 c-12 -12 -18 -13
-30 -3 -13 11 -16 8 -22 -16 -4 -15 -12 -34 -17 -41 -9 -11 -13 -9 -20 10 -9
22 -10 22 -14 3 -6 -32 -25 -75 -32 -75 -3 0 -11 4 -18 8 -15 9 6 83 23 79 7
-1 28 13 49 32 20 18 49 39 63 47 25 13 27 12 30 -7 2 -12 -3 -28 -12 -37z
m-866 1 c0 -7 -4 -13 -8 -13 -15 0 -32 24 -32 44 0 18 1 19 20 1 11 -10 20
-24 20 -32z m355 -4 c9 -28 15 -53 12 -56 -9 -9 -47 60 -47 85 0 38 18 24 35
-29z m111 -21 c-3 -52 -2 -60 3 -28 4 26 10 39 13 30 13 -31 15 -74 6 -106 -7
-28 -14 -34 -35 -34 l-26 0 7 67 c6 57 26 143 33 143 2 0 1 -33 -1 -72z m52
50 c13 -13 16 -58 4 -58 -15 0 -32 24 -32 47 0 25 10 29 28 11z m-566 -28 c16
-29 16 -30 -2 -30 -11 0 -20 3 -20 8 0 4 -3 17 -6 30 -9 32 8 27 28 -8z m251
7 c19 -13 36 -87 20 -87 -17 0 -43 35 -49 68 -7 34 2 40 29 19z m-142 -29 c9
-7 25 -30 37 -50 39 -70 -16 -39 -63 35 -14 22 -15 27 -3 27 8 0 21 -6 29 -12z
m609 3 c0 -6 -4 -13 -10 -16 -5 -3 -10 1 -10 9 0 9 5 16 10 16 6 0 10 -4 10
-9z m-373 -30 c9 -26 9 -29 -6 -23 -15 6 -15 4 0 -18 9 -14 22 -35 30 -47 8
-13 17 -23 22 -23 4 0 5 5 1 12 -11 18 -22 88 -14 88 14 0 32 -29 40 -65 9
-39 8 -40 -35 -49 -27 -6 -33 -2 -58 36 -26 40 -38 106 -17 93 6 -3 10 1 10 9
0 26 15 18 27 -13z m582 -3 c-8 -14 -14 -18 -17 -10 -4 13 17 46 25 38 3 -2
-1 -15 -8 -28z m-724 -13 l40 -35 -30 2 c-21 2 -34 12 -48 36 -24 41 -12 40
38 -3z m259 2 c10 -28 2 -47 -13 -31 -5 5 -11 22 -15 37 -9 37 15 32 28 -6z
m186 -24 c0 -21 -16 -15 -29 11 -8 13 -10 30 -6 36 6 9 12 6 21 -11 7 -13 13
-30 14 -36z m89 5 l-12 -22 -9 23 c-6 18 -4 27 9 37 15 10 19 10 21 -1 2 -8
-2 -24 -9 -37z m-715 10 c10 -39 6 -44 -14 -19 -23 27 -25 41 -6 41 7 0 16
-10 20 -22z m56 7 c11 -13 10 -14 -4 -9 -9 3 -16 10 -16 15 0 13 6 11 20 -6z
m806 -31 c-3 -8 -10 -14 -15 -14 -10 0 -9 9 6 48 6 16 6 16 10 -1 3 -10 2 -25
-1 -33z m-776 -36 c0 -11 -17 -2 -47 25 -36 32 -27 41 12 11 19 -14 35 -31 35
-36z m593 25 c-4 -10 -9 -11 -16 -4 -5 5 -7 18 -3 28 6 14 9 15 16 4 4 -8 6
-21 3 -28z m-88 -3 c6 -29 -9 -65 -24 -56 -5 4 -6 43 -2 76 2 22 20 8 26 -20z
m228 -5 c-3 -13 -11 -30 -19 -36 -11 -9 -14 -7 -14 13 0 23 16 48 31 48 3 0 4
-11 2 -25z m-543 -26 c27 -37 22 -46 -13 -19 -28 22 -37 25 -37 11 0 -5 18
-18 40 -29 22 -10 37 -22 34 -25 -10 -10 -37 4 -71 36 -32 30 -48 62 -19 38
10 -9 15 -8 20 4 8 23 22 18 46 -16z m-164 -40 c8 -6 14 -15 14 -20 0 -17 -21
-9 -45 16 -15 17 -25 21 -27 14 -5 -14 -48 23 -48 41 0 9 79 -29 106 -51z m63
39 l36 -23 -28 -3 c-29 -4 -77 21 -77 38 0 17 31 11 69 -12z m261 -4 c0 -8 -4
-14 -10 -14 -5 0 -10 9 -10 21 0 11 5 17 10 14 6 -3 10 -13 10 -21z m218 1
c-2 -14 -7 -26 -13 -26 -5 0 -11 12 -13 26 -2 18 1 25 13 25 12 0 15 -7 13
-25z m69 4 c2 -8 -6 -25 -17 -39 l-20 -25 0 27 c0 14 3 34 6 43 7 18 28 15 31
-6z m34 -22 c-8 -8 -11 -7 -11 4 0 20 13 34 18 19 3 -7 -1 -17 -7 -23z m-158
-37 c62 -23 95 -45 85 -56 -5 -4 -20 -2 -35 5 -15 7 -63 15 -107 18 -89 6
-185 -12 -243 -47 -18 -11 -33 -17 -33 -13 0 15 44 75 63 85 62 33 192 37 270
8z m-512 -17 l24 -27 -24 15 c-14 9 -27 21 -29 27 -6 19 3 14 29 -15z m133 21
c9 -3 16 -10 16 -15 0 -14 -43 -10 -64 6 -19 14 -19 15 6 15 15 0 33 -3 42 -6z
m526 -9 c-7 -9 -15 -13 -17 -11 -7 7 7 26 19 26 6 0 6 -6 -2 -15z m-553 -36
c23 -14 33 -17 31 -8 -2 8 7 15 20 17 23 3 23 3 8 -27 l-16 -30 -37 15 c-21 9
-47 24 -58 35 -18 18 -19 19 -1 19 10 0 34 -9 53 -21z m433 -27 l65 -19 3 -58
3 -57 -38 8 c-58 14 -220 8 -293 -9 -36 -9 -69 -12 -73 -8 -5 5 -11 26 -14 48
-5 37 -2 42 28 64 70 50 205 63 319 31z m-450 -18 c0 -2 -9 0 -20 6 -11 6 -20
13 -20 16 0 2 9 0 20 -6 11 -6 20 -13 20 -16z m58 -37 c3 -15 0 -16 -22 -6
-14 7 -23 16 -20 21 9 15 38 4 42 -15z m415 -93 c28 -10 49 -23 52 -36 10 -28
1 -32 -42 -17 -62 21 -227 15 -298 -11 -100 -35 -94 -34 -88 -10 11 41 102 74
223 81 58 3 105 6 106 7 0 1 21 -5 47 -14z m-57 -182 c6 -30 -7 -62 -26 -62
-4 0 -10 26 -13 58 -3 31 -9 75 -12 97 l-5 40 24 -50 c14 -27 28 -65 32 -83z
m-72 77 c7 -45 1 -62 -14 -39 -12 19 -13 80 -1 80 5 0 11 -19 15 -41z m113 25
c-3 -3 -12 -4 -19 -1 -8 3 -5 6 6 6 11 1 17 -2 13 -5z m-255 -16 c3 -7 -1 -29
-8 -48 -7 -19 -13 -27 -13 -18 -1 16 -18 34 -26 27 -2 -2 0 -24 5 -49 5 -29 4
-50 -2 -57 -16 -20 -24 -16 -38 16 -13 32 -7 50 37 109 26 34 38 40 45 20z
m58 1 c0 -31 -47 -142 -63 -151 -32 -17 -32 1 1 47 17 25 28 45 23 45 -11 0
-2 39 12 58 12 15 27 16 27 1z m176 -25 c10 -20 33 -43 49 -52 25 -13 27 -17
11 -20 -10 -2 -26 4 -36 15 -26 28 -63 93 -52 93 5 0 17 -16 28 -36z m-126 -3
c0 -17 -4 -33 -10 -36 -5 -3 -10 -19 -10 -36 0 -34 -16 -39 -25 -8 -8 23 21
109 36 109 5 0 9 -13 9 -29z m187 -6 c18 -16 23 -24 13 -25 -18 0 -30 8 -49
33 -20 26 3 21 36 -8z m28 14 c4 -6 25 -24 47 -40 23 -16 34 -29 25 -29 -8 0
-35 18 -58 40 -24 22 -38 40 -32 40 7 0 15 -5 18 -11z m-395 -8 c0 -6 -4 -13
-10 -16 -5 -3 -10 1 -10 9 0 9 5 16 10 16 6 0 10 -4 10 -9z m-35 -59 c-3 -11
1 -32 10 -48 19 -36 19 -55 1 -80 -14 -18 -15 -18 -21 9 -4 15 -5 36 -2 47 3
11 2 22 -3 25 -4 3 -10 -5 -13 -16 -4 -13 -10 -18 -18 -13 -9 5 -10 1 -6 -16
3 -13 1 -32 -4 -42 -9 -16 -13 -17 -26 -6 -14 11 -15 10 -9 -9 10 -31 -12 -39
-25 -9 -13 28 -16 24 65 119 53 61 61 67 51 39z m251 1 c16 -21 18 -59 5 -68
-13 -7 -31 27 -31 59 0 30 8 33 26 9z m259 -43 c14 -22 -27 -8 -57 21 l-33 30
42 -20 c23 -12 44 -25 48 -31z m-138 12 c11 -15 23 -37 27 -48 6 -19 3 -21
-19 -16 -17 3 -25 11 -25 26 0 11 -3 31 -6 44 -8 29 -2 28 23 -6z m188 -2 c14
-5 24 -14 20 -20 -3 -5 9 -16 27 -24 32 -15 68 -39 68 -47 0 -2 -14 -4 -31 -3
-23 1 -43 14 -82 52 -52 52 -52 61 -2 42z m-414 -80 c-8 -39 -9 -41 -11 -15
-3 36 -1 55 7 75 11 28 14 -11 4 -60z m309 55 c20 -24 5 -28 -21 -6 -19 16
-20 20 -8 21 9 0 22 -7 29 -15z m-260 -30 c0 -14 -4 -25 -10 -25 -5 0 -10 4
-10 9 0 5 -3 16 -6 25 -4 11 -1 16 10 16 10 0 16 -9 16 -25z m120 -25 c-10
-24 -17 -29 -41 -26 -36 3 -59 23 -59 49 0 16 3 18 12 9 14 -14 58 -16 58 -3
0 12 34 19 39 8 1 -4 -2 -21 -9 -37z m268 -6 c-8 -7 -87 28 -92 42 -4 9 12 5
45 -12 28 -14 49 -27 47 -30z m-480 24 c-9 -13 -26 -24 -39 -26 -23 -2 -23 -2
6 23 37 31 52 32 33 3z m406 -34 c21 -31 -3 -22 -27 11 -14 19 -14 23 -3 19 8
-3 22 -16 30 -30z m-44 -17 c0 -5 -7 -4 -15 3 -8 7 -15 20 -15 29 1 13 3 13
15 -3 8 -11 15 -24 15 -29z m-64 -2 c21 -51 18 -56 -21 -34 -36 22 -39 27 -29
53 10 27 34 18 50 -19z m234 -27 c0 -4 -2 -8 -5 -8 -14 0 -83 40 -95 55 -9 11
4 8 43 -11 31 -16 57 -32 57 -36z m-390 -17 c0 -29 14 -41 51 -41 26 0 24 -15
-8 -45 -35 -32 -63 -33 -63 -2 0 28 -23 94 -37 108 -8 8 -16 3 -27 -17 -18
-34 -21 -17 -4 21 6 14 17 24 24 21 7 -3 15 2 18 11 10 25 46 -19 46 -56z
m-273 29 c-8 -37 10 -40 42 -6 23 25 61 41 61 26 0 -5 -10 -21 -22 -35 -17
-18 -34 -27 -62 -28 -22 -2 -41 -8 -44 -15 -6 -19 -22 -14 -22 7 0 23 31 81
44 81 5 0 6 -13 3 -30z m143 -25 c0 -19 -4 -36 -9 -39 -12 -8 -22 34 -15 62 9
31 24 17 24 -23z m568 25 c8 -13 9 -20 1 -20 -17 0 -49 20 -49 30 0 18 35 10
48 -10z m-358 2 c0 -16 -32 -52 -46 -52 -15 0 -18 18 -8 44 6 16 54 23 54 8z
m398 -28 c-4 -3 -12 5 -18 18 -12 22 -12 22 6 6 10 -10 15 -20 12 -24z m-842
-1 c4 -15 15 -36 25 -46 9 -10 15 -27 12 -38 -6 -22 11 -25 51 -9 30 11 34 0
9 -23 -23 -20 -79 -35 -68 -18 4 7 0 17 -9 24 -9 7 -20 25 -24 41 -5 16 -12
31 -18 32 -10 3 -54 -84 -54 -108 0 -8 -6 -23 -14 -34 -8 -10 -12 -29 -9 -41
3 -13 1 -23 -5 -23 -5 0 -7 -11 -4 -25 2 -13 1 -33 -3 -42 -5 -10 -7 -26 -6
-37 2 -11 -2 -17 -11 -14 -18 7 -12 73 17 167 25 83 86 221 97 221 4 0 11 -12
14 -27z m577 20 c3 -5 8 -30 11 -58 7 -47 7 -49 -9 -30 -15 19 -16 18 -13 -17
4 -36 -4 -49 -16 -29 -8 12 6 141 15 141 4 0 10 -3 12 -7z m109 -20 c25 -30
33 -47 17 -38 -24 14 -49 38 -49 47 0 14 16 9 32 -9z m105 -39 c-10 -10 -58 9
-68 28 -10 18 -8 18 31 -2 23 -12 40 -24 37 -26z m-467 -10 c9 -26 9 -39 1
-47 -8 -8 -11 -8 -11 2 0 7 -5 9 -11 6 -6 -4 -7 -19 -4 -36 7 -30 -8 -41 -19
-13 -15 40 4 141 25 129 4 -3 13 -21 19 -41z m197 12 c7 -6 10 -21 7 -33 -5
-20 -8 -20 -37 -8 -18 7 -32 18 -31 24 1 6 2 18 3 27 1 17 36 11 58 -10z m365
-7 c15 -11 28 -29 28 -38 0 -10 7 -24 16 -31 18 -16 41 -56 26 -46 -17 10 -23
-11 -7 -24 8 -7 15 -20 15 -29 -1 -11 -8 -8 -27 14 -16 18 -21 31 -14 33 9 3
8 9 -2 21 -8 9 -20 33 -27 54 -6 20 -15 35 -20 32 -12 -8 -58 15 -65 32 -7 20
38 9 77 -18z m-734 9 c-5 -14 -88 -51 -88 -38 0 5 12 18 26 29 29 23 68 28 62
9z m52 -18 c0 -29 -17 -33 -22 -5 -3 13 -3 27 0 29 9 10 22 -5 22 -24z m440
-27 c-1 -36 -2 -37 -15 -19 -16 21 -19 39 -8 49 15 16 23 5 23 -30z m46 -40
c2 -30 0 -49 -8 -54 -9 -6 -9 -11 -1 -21 13 -15 6 -98 -8 -98 -5 0 -9 -13 -9
-30 0 -19 -7 -34 -20 -42 -11 -7 -20 -18 -20 -24 0 -15 -48 -59 -56 -51 -4 4
5 24 19 44 14 21 33 57 42 80 10 24 20 41 24 38 4 -2 7 13 7 33 -2 121 5 206
15 189 6 -10 12 -39 15 -64z m-516 36 c0 -28 -19 -61 -31 -54 -13 8 -11 41 3
64 14 23 28 18 28 -10z m63 0 c-13 -22 -19 -26 -21 -14 -4 17 15 45 30 45 5 0
1 -14 -9 -31z m550 20 c33 -17 57 -41 52 -50 -10 -15 -84 32 -85 54 0 10 8 9
33 -4z m-53 -18 c13 -26 13 -44 -2 -39 -14 5 -30 58 -17 58 4 0 13 -9 19 -19z
m139 -10 c15 -23 15 -24 -7 -10 -12 7 -24 20 -27 27 -8 21 17 9 34 -17z m-869
-49 c0 -5 -7 -15 -15 -22 -12 -10 -17 -8 -26 13 -6 14 -9 33 -5 43 6 16 8 15
26 -4 11 -12 20 -25 20 -30z m488 35 c6 -7 9 -23 5 -35 -4 -18 -10 -21 -27
-16 -18 6 -19 5 -8 -9 8 -9 11 -25 8 -35 -6 -18 -8 -18 -41 -3 -38 18 -40 30
-7 47 12 6 19 13 16 17 -3 3 -3 15 1 26 7 24 37 28 53 8z m-216 -76 c15 -21
15 -20 33 19 15 33 23 40 47 40 35 0 33 -19 -3 -37 -18 -10 -20 -13 -6 -13 9
0 17 -4 17 -9 0 -16 -49 -41 -66 -34 -12 4 -15 3 -10 -5 4 -7 15 -12 23 -12
13 0 10 -7 -12 -30 -36 -38 -58 -40 -49 -5 3 14 2 25 -2 25 -18 0 -37 61 -26
83 6 12 13 31 17 42 7 17 9 16 15 -11 4 -17 14 -41 22 -53z m358 27 c0 -26 -2
-29 -15 -18 -8 7 -15 26 -15 42 0 26 2 29 15 18 8 -7 15 -26 15 -42z m184 27
c11 -8 17 -18 13 -21 -3 -4 0 -16 8 -28 22 -30 18 -36 -14 -23 -22 8 -32 20
-39 49 -11 42 -2 48 32 23z m95 -70 c4 -16 6 -32 5 -34 -8 -9 -42 32 -47 57
-3 15 -9 36 -12 47 -5 15 0 12 19 -10 15 -16 30 -43 35 -60z m-360 53 c9 -25
-16 -91 -31 -82 -4 3 -8 -2 -8 -10 0 -8 -18 -34 -40 -58 -50 -54 -53 -31 -5
39 19 29 35 57 35 63 0 14 29 70 36 70 2 0 8 -10 13 -22z m-425 -10 c3 -14 -1
-29 -9 -38 -13 -13 -15 -10 -15 23 0 41 14 50 24 15z m66 2 c0 -12 -7 -35 -16
-52 -14 -27 -18 -29 -26 -15 -6 12 -4 28 8 52 18 39 34 46 34 15z m577 -26
c10 -26 -8 -30 -28 -5 -10 13 -19 27 -19 32 0 14 40 -10 47 -27z m-742 -29
c-22 -19 -48 -34 -57 -35 -12 0 -18 -8 -19 -22 -1 -21 -2 -20 -14 7 -17 36
-18 55 -5 75 9 13 13 12 29 -8 13 -15 22 -19 26 -11 9 13 68 39 75 33 2 -3
-13 -21 -35 -39z m590 -14 c-10 -32 -35 -8 -35 32 l0 31 21 -21 c15 -14 19
-27 14 -42z m155 -38 c0 -31 -2 -34 -15 -23 -19 16 -34 5 -17 -12 15 -15 16
-74 2 -83 -5 -3 -10 -2 -10 4 0 6 -9 19 -20 29 -19 17 -19 24 -10 73 17 83 16
82 45 63 19 -12 25 -25 25 -51z m-694 1 c-9 -34 -28 -31 -20 4 3 15 8 34 11
42 9 23 16 -16 9 -46z m352 32 c9 -20 7 -29 -9 -50 -19 -24 -22 -25 -42 -11
-12 8 -31 15 -42 15 -17 1 -13 7 19 35 47 41 59 43 74 11z m-294 -59 c-7 -22
-38 -18 -42 5 -2 9 5 29 14 44 l18 27 8 -29 c4 -16 5 -37 2 -47z m78 33 c2
-16 1 -35 -3 -41 -12 -20 -29 1 -29 35 0 55 24 60 32 6z m622 18 c9 -12 16
-34 16 -47 l0 -25 -30 29 c-32 30 -40 65 -16 65 8 0 22 -10 30 -22z m-794 -16
c0 -20 -8 -32 -30 -45 -29 -18 -30 -18 -30 1 0 21 36 72 51 72 5 0 9 -13 9
-28z m548 -16 c-2 -12 -10 -21 -18 -21 -8 0 -16 -9 -18 -20 -7 -42 -11 -48
-27 -35 -13 10 -15 9 -15 -9 0 -36 -18 -61 -38 -54 -14 6 -15 4 -5 -8 14 -17
6 -59 -11 -59 -33 0 -51 65 -21 76 8 4 12 10 9 15 -7 11 37 70 48 63 4 -3 8 1
8 9 0 8 9 22 19 31 15 13 20 14 24 4 3 -7 6 -1 6 13 1 14 4 29 8 32 11 12 34
-15 31 -37z m372 15 c15 -29 12 -41 -7 -34 -14 5 -12 -1 7 -22 20 -22 21 -27
7 -22 -10 4 -22 7 -27 7 -5 0 -8 20 -8 45 0 48 11 58 28 26z m-50 -49 c0 -34
-1 -35 -15 -16 -8 10 -15 32 -15 48 0 24 2 27 15 16 8 -7 15 -29 15 -48z
m-961 -19 l24 -32 19 25 c11 13 26 24 33 24 12 0 12 -7 -1 -42 -8 -23 -20 -48
-27 -57 -9 -12 -9 -13 1 -7 13 8 16 -11 6 -38 -9 -24 -54 -21 -54 4 0 11 -4
20 -10 20 -5 0 -10 -5 -10 -12 0 -6 -9 -3 -20 7 -11 10 -20 24 -20 31 0 21 19
26 36 10 14 -15 34 -21 34 -12 0 2 3 12 7 22 5 13 3 16 -9 11 -17 -6 -58 26
-58 46 0 7 3 23 7 36 4 18 8 21 12 10 3 -8 17 -29 30 -46z m229 -37 c-10 -19
-11 -19 -25 -1 -7 11 -11 26 -8 33 3 8 5 23 5 35 1 18 4 16 19 -13 15 -26 17
-40 9 -54z m657 37 c2 -7 0 -26 -6 -41 -10 -26 -11 -26 -25 -8 -8 11 -14 35
-14 53 0 31 2 32 20 21 11 -7 22 -18 25 -25z m-740 -14 c7 -32 -7 -59 -31 -59
-17 0 -18 40 -3 74 14 31 25 26 34 -15z m274 28 c16 -21 -23 -52 -65 -52 -39
0 -44 15 -14 45 23 23 62 26 79 7z m-115 -32 c-14 -22 -54 -36 -54 -19 0 20
24 44 46 44 24 0 24 -1 8 -25z m356 16 c0 -13 -26 -32 -33 -24 -8 7 11 33 24
33 5 0 9 -4 9 -9z m288 -50 c-2 -8 -9 -16 -15 -19 -9 -2 -13 8 -13 35 1 36 1
37 16 18 8 -11 13 -26 12 -34z m-478 15 c0 -34 -22 -49 -45 -32 -17 12 -17 14
3 34 28 28 42 28 42 -2z m-280 -33 c0 -25 -11 -35 -28 -24 -9 6 -10 15 -1 40
9 24 14 29 20 19 5 -7 9 -23 9 -35z m560 2 c0 -40 -10 -49 -35 -31 -16 12 -16
14 -1 45 20 38 36 32 36 -14z m306 -22 c-9 -9 -56 42 -56 60 0 6 14 -3 32 -20
18 -18 28 -36 24 -40z m-436 40 c-1 -14 -27 -43 -33 -37 -8 9 11 44 23 44 6 0
10 -3 10 -7z m230 -12 c6 -12 7 -29 1 -42 l-8 -23 -18 27 c-17 27 -15 57 4 57
6 0 15 -9 21 -19z m-565 -30 c-4 -21 -13 -31 -25 -31 -39 0 -36 56 3 62 29 5
30 4 22 -31z m75 24 c0 -8 -10 -19 -21 -26 -12 -6 -17 -14 -12 -18 5 -3 7 -17
3 -31 -7 -29 -17 -18 -21 26 -4 33 14 64 37 64 8 0 14 -7 14 -15z m-445 -25
c-5 -8 -11 -8 -17 -2 -6 6 -7 16 -3 22 5 8 11 8 17 2 6 -6 7 -16 3 -22z m205
-31 c0 -24 -35 -2 -38 24 l-3 28 20 -20 c12 -12 21 -26 21 -32z m315 15 c0
-12 -8 -20 -24 -22 -28 -4 -43 15 -30 40 12 23 54 9 54 -18z m475 0 c0 -14 -5
-35 -11 -47 l-12 -21 -8 22 c-9 24 8 85 22 76 5 -3 9 -16 9 -30z m-97 -3 c6
-26 -7 -45 -27 -38 -19 7 -21 38 -4 55 14 14 24 8 31 -17z m-231 -16 c4 -19 0
-29 -14 -36 -31 -17 -43 3 -23 40 18 35 30 34 37 -4z m408 13 c0 -19 -2 -20
-10 -8 -13 19 -13 30 0 30 6 0 10 -10 10 -22z m70 -34 c0 -8 -4 -14 -10 -14
-12 0 -30 34 -30 57 1 16 3 15 20 -6 11 -13 20 -29 20 -37z m-880 -4 c0 -21
-29 -35 -43 -21 -5 5 -6 23 -2 41 7 30 8 31 26 14 10 -9 19 -25 19 -34z m26
13 c-11 -11 -19 6 -11 24 8 17 8 17 12 0 3 -10 2 -21 -1 -24z m-306 16 c0 -6
-5 -19 -11 -30 -15 -28 -31 -13 -17 16 11 25 28 34 28 14z m506 -25 c26 7 37
-3 25 -23 -11 -18 -68 -5 -80 17 -14 29 -1 47 16 22 11 -16 22 -20 39 -16z
m-447 0 c35 -44 25 -67 -18 -44 -22 11 -32 35 -25 55 9 22 20 19 43 -11z m331
2 c0 -8 -8 -17 -17 -19 -11 -3 -7 -5 10 -6 17 -1 27 -7 27 -16 0 -23 -47 -18
-64 7 -25 35 -24 36 37 47 4 0 7 -5 7 -13z m428 2 c-3 -7 -15 -13 -28 -13 -13
0 -25 6 -27 13 -3 8 6 12 27 12 21 0 30 -4 28 -12z m250 -29 c2 -36 -9 -26
-23 20 -5 17 -4 22 6 19 8 -3 15 -20 17 -39z m-916 -5 c-2 -14 -11 -28 -19
-31 -17 -7 -20 -4 -28 27 -5 22 -2 25 23 27 26 2 29 -1 24 -23z m454 13 c6 2
18 -5 28 -16 16 -17 16 -20 1 -35 -22 -22 -48 -20 -71 5 -19 22 -19 22 4 14
24 -7 24 -7 6 21 -18 26 -18 27 1 17 11 -6 25 -9 31 -6z m354 4 c0 -12 -29
-41 -40 -41 -19 0 -21 22 -4 35 22 17 44 19 44 6z m-750 -17 c0 -9 -7 -14 -17
-12 -25 5 -28 28 -4 28 12 0 21 -6 21 -16z m114 -6 c6 -25 -7 -44 -23 -34 -12
8 -15 39 -4 49 12 12 21 7 27 -15z m386 16 c0 -13 -21 -44 -30 -44 -14 0 -12
24 2 38 13 13 28 16 28 6z m425 -44 c-4 -11 -11 -20 -16 -20 -10 0 -12 53 -2
64 11 11 25 -23 18 -44z m-267 18 c3 -13 -3 -18 -22 -18 -27 0 -41 14 -31 31
10 16 49 6 53 -13z m169 6 c6 -17 -13 -90 -25 -98 -7 -4 -8 64 -3 107 2 13 22
7 28 -9z m-1069 -28 c-2 -10 -7 -13 -17 -7 -8 6 -11 16 -7 27 8 21 30 4 24
-20z m572 -1 c0 -18 -21 -24 -47 -14 -37 14 -29 36 12 31 20 -2 35 -10 35 -17z
m-501 4 c17 -6 31 -15 31 -19 0 -20 -13 -40 -26 -40 -8 0 -14 -4 -14 -10 0 -5
7 -10 15 -10 24 0 40 -40 23 -57 -16 -15 -51 -7 -45 11 2 6 -4 22 -14 35 -24
30 -25 55 -3 47 12 -4 15 -2 10 9 -3 8 -9 22 -12 30 -7 18 -6 18 35 4z m252
-71 c-7 -11 -7 -18 -2 -18 6 0 13 5 16 10 9 15 22 12 29 -6 4 -9 1 -23 -5 -31
-7 -7 -9 -16 -6 -19 3 -3 12 3 19 15 7 12 18 21 24 21 20 0 4 -39 -18 -46 -42
-13 -98 42 -113 113 -5 28 -3 32 17 35 29 4 56 -47 39 -74z m452 31 c-10 -16
-23 -29 -30 -29 -17 0 -16 13 4 49 13 22 21 27 30 19 10 -8 9 -16 -4 -39z
m-539 28 c16 -12 16 -14 2 -26 -13 -11 -19 -11 -31 -1 -35 29 -8 54 29 27z
m160 4 c9 -14 -4 -41 -19 -41 -21 0 -28 19 -15 35 14 17 26 19 34 6z m61 -20
c-3 -12 -11 -19 -16 -15 -5 3 -18 -5 -29 -18 -11 -13 -19 -18 -20 -12 0 15 59
78 66 71 3 -3 3 -15 -1 -26z m-285 -11 c0 -25 -4 -30 -25 -30 -20 0 -25 5 -25
23 0 28 7 37 32 37 13 0 18 -8 18 -30z m544 15 c-7 -16 -44 -21 -44 -6 0 8 16
16 42 20 4 0 5 -6 2 -14z m301 -5 c13 -41 -35 -68 -55 -31 -8 16 -6 23 12 35
29 21 35 20 43 -4z m-105 6 c0 -2 3 -12 6 -21 6 -13 1 -16 -22 -13 -38 4 -47
38 -10 38 14 0 26 -2 26 -4z m-914 -43 c-3 -8 0 -23 7 -34 10 -16 9 -21 -3
-29 -11 -7 -9 -11 13 -19 16 -6 33 -11 38 -11 6 0 7 -4 4 -10 -3 -5 -16 -10
-28 -10 -21 -1 -21 -1 -3 -11 13 -8 25 -8 43 0 32 15 45 4 19 -15 -28 -20 -54
-17 -81 10 -47 47 -64 193 -18 154 8 -6 12 -17 9 -25z m534 21 c0 -2 -7 -4
-15 -4 -8 0 -15 4 -15 10 0 5 7 7 15 4 8 -4 15 -8 15 -10z m603 -22 c-5 -12
-7 -12 -15 2 -11 20 1 44 12 25 5 -6 6 -19 3 -27z m-307 -8 c-4 -12 -10 -14
-17 -7 -5 5 -7 17 -3 27 4 12 10 14 17 7 5 -5 7 -17 3 -27z m-590 0 c17 5 24
2 24 -9 0 -8 -9 -15 -19 -15 -22 0 -51 25 -51 43 0 7 5 4 11 -6 8 -13 18 -17
35 -13z m318 12 c-7 -17 -32 -28 -46 -20 -5 3 1 12 14 19 31 18 38 18 32 1z
m76 6 c0 -5 -6 -16 -13 -26 -13 -18 -14 -18 -20 -2 -4 10 -5 22 -1 27 7 11 34
12 34 1z m473 -33 c6 -21 -23 -59 -44 -59 -13 0 -4 47 13 67 15 19 25 16 31
-8z m-918 -1 c12 -11 -15 -48 -35 -48 -11 0 -20 3 -20 8 0 4 -3 17 -6 28 -5
19 -2 22 24 20 17 -1 34 -4 37 -8z m482 -8 c4 -15 9 -17 23 -10 9 5 20 6 24 3
24 -24 -25 -49 -65 -33 -31 13 -36 29 -17 48 17 17 29 15 35 -8z m133 1 c13
-26 5 -46 -26 -60 -48 -21 -59 10 -19 53 29 31 31 32 45 7z m143 2 c14 -8 7
-33 -10 -33 -18 0 -53 28 -53 42 0 8 44 1 63 -9z m-463 -3 c0 -5 -4 -10 -9
-10 -6 0 -13 5 -16 10 -3 6 1 10 9 10 9 0 16 -4 16 -10z m378 -39 c-15 -5 -21
7 -13 26 7 17 8 17 15 -2 4 -11 3 -22 -2 -24z m176 14 c-7 -16 -30 -20 -38 -6
-7 11 4 21 25 21 12 0 16 -5 13 -15z m-826 -12 c-2 -10 -11 -19 -21 -21 -16
-3 -17 -1 -5 17 16 25 31 27 26 4z m242 -4 c0 -5 -4 -9 -10 -9 -5 0 -10 7 -10
16 0 8 5 12 10 9 6 -3 10 -10 10 -16z m95 11 c-3 -5 -13 -6 -21 -3 -14 5 -15
3 -5 -14 8 -16 7 -24 -3 -32 -11 -9 -15 -5 -18 19 -3 16 -2 32 0 35 10 9 53 5
47 -5z m98 -42 c7 -24 -19 -23 -33 1 -5 11 -10 25 -10 30 0 17 38 -10 43 -31z
m-163 12 c0 -11 -6 -20 -14 -20 -9 0 -12 7 -9 20 3 11 9 20 14 20 5 0 9 -9 9
-20z m499 4 c7 -6 -21 -34 -35 -34 -14 0 -44 27 -44 40 0 8 69 2 79 -6z m-693
-34 c-5 -28 -4 -30 19 -24 18 4 25 2 25 -8 0 -9 9 -14 23 -14 33 1 28 -28 -5
-32 -37 -4 -78 36 -78 78 0 16 5 30 11 30 7 0 9 -11 5 -30z m89 19 c15 2 17 0
9 -9 -13 -13 -54 -5 -54 11 0 6 6 7 13 2 6 -4 21 -6 32 -4z m323 -15 c-9 -9
-21 -13 -27 -10 -20 13 -11 26 16 26 25 0 26 -1 11 -16z m107 -3 c-3 -6 -11
-8 -17 -5 -6 4 -5 9 3 15 16 10 23 4 14 -10z m-589 -17 c-6 -21 -4 -25 8 -21
8 3 22 -3 32 -15 18 -19 18 -20 -11 -16 -36 4 -68 54 -44 69 21 13 22 11 15
-17z m402 -8 c8 -15 11 -30 7 -34 -8 -8 -44 38 -45 56 0 22 24 8 38 -22z m390
22 c-3 -7 -13 -15 -24 -17 -16 -3 -17 -1 -5 13 16 19 34 21 29 4z m62 2 c0
-12 -28 -25 -36 -17 -9 9 6 27 22 27 8 0 14 -5 14 -10z m-620 -20 c0 -11 -4
-20 -10 -20 -5 0 -10 9 -10 20 0 11 5 20 10 20 6 0 10 -9 10 -20z m320 4 c0
-14 -3 -14 -15 -4 -8 7 -15 14 -15 16 0 2 7 4 15 4 8 0 15 -7 15 -16z m80 -3
c0 -10 -7 -24 -15 -31 -20 -17 -32 13 -13 34 18 21 28 20 28 -3z m-690 -8 c0
-5 -5 -15 -10 -23 -8 -12 -10 -11 -10 8 0 12 5 22 10 22 6 0 10 -3 10 -7z
m370 -3 c0 -10 -32 -30 -49 -30 -6 0 -11 9 -11 20 0 16 7 20 30 20 17 0 30 -4
30 -10z m-415 -21 c-8 -12 -45 -12 -45 0 0 10 30 20 43 14 4 -3 5 -9 2 -14z
m580 -6 c14 -16 21 -29 17 -31 -17 -5 -61 17 -72 38 -17 32 23 26 55 -7z m79
-5 c-8 -12 -38 -10 -52 4 -21 21 -13 25 22 14 19 -6 32 -14 30 -18z m-584 -23
c0 -38 -13 -46 -29 -18 -6 11 -6 24 0 35 16 29 29 21 29 -17z m341 -24 c-7
-12 -16 -21 -21 -21 -14 0 -12 34 2 48 18 18 32 -2 19 -27z m-116 18 c10 -15
-1 -23 -20 -15 -9 3 -13 10 -10 16 8 13 22 13 30 -1z m75 4 c-1 -19 -16 -31
-29 -24 -7 5 -10 14 -7 20 8 12 36 15 36 4z m-238 -33 c17 -30 17 -30 -7 -30
-23 0 -45 24 -45 49 0 23 36 9 52 -19z m66 13 c2 -7 -4 -16 -12 -19 -19 -7
-49 14 -40 28 8 13 46 6 52 -9z m292 2 c0 -9 -7 -18 -16 -22 -20 -7 -38 18
-21 29 20 13 37 9 37 -7z m-230 -37 c0 -11 -21 -10 -39 1 -13 8 -13 12 -1 26
13 16 15 16 27 -1 7 -10 13 -21 13 -26z m78 5 c2 -8 -6 -13 -22 -13 -28 0 -43
15 -24 23 20 8 41 3 46 -10z m202 12 c0 -2 -10 -10 -22 -16 -21 -11 -22 -11
-9 4 13 16 31 23 31 12z m-105 -25 c-3 -5 -13 -10 -21 -10 -8 0 -12 5 -9 10 3
6 13 10 21 10 8 0 12 -4 9 -10z m-65 -10 c0 -5 -5 -10 -11 -10 -5 0 -7 5 -4
10 3 6 8 10 11 10 2 0 4 -4 4 -10z m-96 -12 c-7 -11 -51 -10 -58 1 -3 5 10 9
28 8 19 0 33 -5 30 -9z"/>
<path d="M985 2341 c34 -21 44 -19 25 4 -7 8 -22 15 -34 15 -18 0 -17 -2 9
-19z"/>
</g>
</svg>
